<svg xmlns="http://www.w3.org/2000/svg" viewBox="0 0 46 46">
  <defs>
    <style>
      #cardpool_logo_small_bg {
       fill: #fff;
      }

      #cardpool_logo_small_border {
        fill: #ccc;
      }
      #cardpool_logo_small_letter {
        fill: #000;
      }
    </style>
  </defs>
  <rect id="cardpool_logo_small_bg" x="0.5" y="0.5" width="45" height="45" rx="7.01" ry="7.01"/>
  <path id="cardpool_logo_small_border" d="M38.49,1A6.52,6.52,0,0,1,45,7.51v31A6.52,6.52,0,0,1,38.49,45h-31A6.52,6.52,0,0,1,1,38.49v-31A6.52,6.52,0,0,1,7.51,1h31m0-1h-31A7.51,7.51,0,0,0,0,7.51v31A7.51,7.51,0,0,0,7.51,46h31A7.51,7.51,0,0,0,46,38.49v-31A7.51,7.51,0,0,0,38.49,0Z"/>
  <path id="cardpool_logo_small_letter" d="M19.94,8.17a5.35,5.35,0,0,1,2.41-.64,8.66,8.66,0,0,1,4.08,1.6,10.5,10.5,0,0,0,2.3,1.4,15.46,15.46,0,0,1,.56-2.92,6.44,6.44,0,0,1,1.44.72,5.41,5.41,0,0,1,.09,1.36c0,3.09.24,6.18,0,9.27a26.8,26.8,0,0,1-.07,2.89,1.28,1.28,0,0,1-1.44,0,4,4,0,0,1-1.3-1.08c-.45-3-.06-6.18-1.44-9-.35-.74-.89-1.6-1.79-1.59a5.18,5.18,0,0,0-3.61,2.16,20,20,0,0,0-2.55,4.46c-.45,1.07-.67,2.22-1,3.3a28.24,28.24,0,0,0-.72,5.77,16.52,16.52,0,0,0,1.44,7.85c.92,1.81,3,2.7,4.86,3.1A8.21,8.21,0,0,0,29,35.88a17.75,17.75,0,0,0,2.89-2.76,5.66,5.66,0,0,1-1.18,3.09,5.89,5.89,0,0,1-4,2.09A12.76,12.76,0,0,1,18,36.6a11,11,0,0,1-3.3-3.36,11.86,11.86,0,0,1-.91-2.33,20.37,20.37,0,0,1-.61-4.79,30.82,30.82,0,0,1,.28-3.55,28.14,28.14,0,0,1,3.08-10.49A10.61,10.61,0,0,1,19.94,8.17Z"/>
</svg>
