<svg xmlns="http://www.w3.org/2000/svg" xmlns:xlink="http://www.w3.org/1999/xlink" width="20.03" height="20.032" viewBox="0 0 20.03 20.032">
  <defs>
    <style>
      .cls-1 {
        fill: #636363;
        fill-rule: evenodd;
        filter: url(#filter);
      }
    </style>
    <filter id="filter" x="998.75" y="213.906"  filterUnits="userSpaceOnUse">
      <feFlood result="flood" flood-color="#39f"/>
      <feComposite result="composite" operator="in" in2="SourceGraphic"/>
      <feBlend result="blend" in2="SourceGraphic"/>
    </filter>
  </defs>
  <path id="cog-o.svg" class="cls-1" d="M1010.09,233.948h-2.68a1.209,1.209,0,0,1-.76-0.266,1.1,1.1,0,0,1-.41-0.78l-0.27-1.729c-0.11-.044-0.22-0.089-0.33-0.137l-1.35,1.023a1.221,1.221,0,0,1-1.57-.092,15.758,15.758,0,0,1-2.07-2.118,1.2,1.2,0,0,1-.22-0.71,1.188,1.188,0,0,1,.24-0.715c0.11-.165.33-0.443,0.63-0.824,0.14-.177.26-0.334,0.37-0.471a4.487,4.487,0,0,1-.19-0.455l-1.764-.26a1.108,1.108,0,0,1-.733-0.434,1.187,1.187,0,0,1-.248-0.731v-2.682a1.206,1.206,0,0,1,.24-0.715,1.088,1.088,0,0,1,.69-0.445l1.835-.276a3,3,0,0,1,.16-0.379c-0.28-.366-0.61-0.79-1-1.267a1.169,1.169,0,0,1-.29-0.759,1.282,1.282,0,0,1,.23-0.7,13.868,13.868,0,0,1,1.28-1.405,2.733,2.733,0,0,1,1.66-1.077,1.252,1.252,0,0,1,.77.275l1.31,1.013q0.165-.072.33-0.138a16.219,16.219,0,0,1,.31-1.89,1.145,1.145,0,0,1,1.15-.89h2.68a1.179,1.179,0,0,1,.76.268,1.074,1.074,0,0,1,.41.771l0.27,1.736c0.11,0.044.22,0.09,0.33,0.137l1.36-1.025a1.235,1.235,0,0,1,1.51.037,17.185,17.185,0,0,1,2.13,2.193,1.107,1.107,0,0,1,.22.692,1.251,1.251,0,0,1-.24.712c-0.12.17-.34,0.448-0.64,0.827-0.14.178-.26,0.337-0.37,0.475,0.07,0.147.13,0.294,0.19,0.44l1.77,0.271a1.112,1.112,0,0,1,.73.434,1.212,1.212,0,0,1,.25.731V225.3a1.249,1.249,0,0,1-.24.712,1.112,1.112,0,0,1-.72.45l-1.81.276c-0.06.126-.11,0.246-0.16,0.36,0.26,0.345.6,0.772,1.01,1.274a1.236,1.236,0,0,1,.29.769,1.131,1.131,0,0,1-.31.775,11.634,11.634,0,0,1-1.22,1.333c-1.26,1.241-1.72,1.255-2.36.846l-1.37-1.063c-0.11.048-.22,0.095-0.33,0.138a15.952,15.952,0,0,1-.31,1.89A1.144,1.144,0,0,1,1010.09,233.948Zm-2.39-1.23v0Zm2.11-.028v0Zm-2.15-.218h2.2c0.09-.407.18-1.054,0.28-1.933l0.06-.472,0.45-.145a6.044,6.044,0,0,0,.98-0.409l0.43-.222,1.88,1.476a7.966,7.966,0,0,0,.64-0.571,14.218,14.218,0,0,0,.99-1.057c-0.52-.642-0.92-1.16-1.19-1.546l-0.26-.372,0.21-.4a6.488,6.488,0,0,0,.43-0.994l0.15-.419,2.38-.36v-2.179l-2.39-.366-0.14-.439a5.858,5.858,0,0,0-.44-1.064l-0.21-.4,0.26-.369c0.15-.207.38-0.5,0.68-0.878q0.3-.387.48-0.622a18.8,18.8,0,0,0-1.6-1.617l-1.9,1.445-0.42-.211a6.659,6.659,0,0,0-.98-0.4l-0.43-.142-0.36-2.406h-2.2c-0.07.329-.16,0.907-0.28,1.933l-0.06.472-0.45.144a5.964,5.964,0,0,0-.98.411l-0.42.219-1.9-1.468a7.593,7.593,0,0,0-.63.57,12.553,12.553,0,0,0-.98,1.045c0.49,0.6.88,1.107,1.18,1.54l0.26,0.375-0.21.4a5.108,5.108,0,0,0-.42.973l-0.13.446-2.41.362V225l2.4,0.355,0.13,0.458a5.526,5.526,0,0,0,.44,1.047l0.22,0.407-0.27.376c-0.15.207-.38,0.5-0.67,0.877-0.21.263-.37,0.472-0.49,0.628a15.957,15.957,0,0,0,1.61,1.61l1.89-1.443,0.42,0.211a6.155,6.155,0,0,0,.98.4l0.43,0.141Zm-4.27-1.581a0.223,0.223,0,0,1-.04.031Zm0.34,0s0.01,0,.01,0A0.042,0.042,0,0,1,1003.73,230.9Zm10.06-.024h0Zm1.92-1.561h0Zm-13.85-.023v0Zm13.83-.305v0h0Zm-0.04-10.094c0.02,0.018.03,0.037,0.05,0.055C1015.68,218.926,1015.67,218.907,1015.65,218.888Zm-13.84-.009h0Zm13.83-.3h0Zm-11.93-1.58h0Zm10.48-.075-0.08.059A0.512,0.512,0,0,0,1014.19,216.919Zm-6.5-1.749v0Zm2.11-.042v0Zm-1.05,12.635a3.829,3.829,0,1,1,2.71-1.123h0A3.7,3.7,0,0,1,1008.75,227.763Zm0-6.185a2.355,2.355,0,1,0,1.66,4.02h0.01A2.355,2.355,0,0,0,1008.75,221.578Z" transform="translate(-998.75 -213.906)"/>
</svg>
