<svg xmlns="http://www.w3.org/2000/svg" width="36" height="25.03" viewBox="0 0 36 25.03">
  <defs>
    <style>
      .cls-1 {
        fill: #3399FF;
        fill-rule: evenodd;
      }
    </style>
  </defs>
  <path id="icon-physical.svg" class="cls-1" d="M227.7,1229.66h-7.016a1.413,1.413,0,0,1-1.419-1.4v-3.48a1.413,1.413,0,0,1,1.419-1.4h5.769a1.18,1.18,0,0,1,1.351.64l1.247,3.81a1.378,1.378,0,0,1-.2,1.25A1.436,1.436,0,0,1,227.7,1229.66Zm-6.469-1.94h5.72l-0.9-2.4h-4.824v2.4Zm4.7-2.77h0Zm7.229,14.19-0.014-1.93h1.891v-6.23l-3.459-1.53a1.18,1.18,0,0,1-.64-0.69l-1.967-5.54a1.159,1.159,0,0,1,.153-1.07,1.176,1.176,0,0,1,.643-0.45v-0.08h-26.8v16.76h1.76a9.655,9.655,0,0,0,.375,1.93h-2.245a1.843,1.843,0,0,1-1.856-1.82v-16.98a1.845,1.845,0,0,1,1.856-1.83H230.31a1.413,1.413,0,0,1,1.419,1.4v1.11a1.391,1.391,0,0,1-.634,1.16l1.586,4.47,3.615,1.6a1.176,1.176,0,0,1,.7,1.07v7.25a1.413,1.413,0,0,1-1.42,1.4h-2.423Zm-8.309,1.17H214.406l0.059-1.93h9.5S224.011,1240.38,224.848,1240.31Zm-15.041,4.4a5.381,5.381,0,1,1,5.468-5.38A5.428,5.428,0,0,1,209.807,1244.71Zm0-8.98a3.6,3.6,0,1,0,3.657,3.6A3.637,3.637,0,0,0,209.807,1235.73Zm18.742,8.98a5.191,5.191,0,1,1,5.274-5.19A5.233,5.233,0,0,1,228.549,1244.71Zm0-8.66a3.47,3.47,0,1,0,3.527,3.47A3.5,3.5,0,0,0,228.549,1236.05Z" transform="translate(-201 -1219.69)"/>
</svg>
