<svg id="icon_earned.svg" xmlns="http://www.w3.org/2000/svg" viewBox="0 0 28 28">
  <defs>
    <style>
      .cls-1 {
        fill: #636363;
        fill-rule: evenodd;
      }
      
      .cls-2 {
        fill: none;
        stroke: #636363;
        stroke-width: 2px;
      }
    </style>
  </defs>
  <circle class="cls-2" cx="13.5" cy="13.5" r="12.5"/>
  <path id="dollar" class="cls-1" d="M909.959,247.557a3.44,3.44,0,0,0-.3-0.726,2.449,2.449,0,0,0-.5-0.6,5.992,5.992,0,0,0-.588-0.474,5.761,5.761,0,0,0-.716-0.4q-0.456-.222-0.721-0.332c-0.177-.072-0.433-0.172-0.768-0.3-0.3-.114-0.519-0.2-0.665-0.261s-0.336-.146-0.573-0.256a3.287,3.287,0,0,1-.532-0.3,3.9,3.9,0,0,1-.374-0.313,1.054,1.054,0,0,1-.28-0.393,1.275,1.275,0,0,1,.488-1.509,2.468,2.468,0,0,1,1.471-.408,3.2,3.2,0,0,1,.811.109,4.271,4.271,0,0,1,.707.247,4.906,4.906,0,0,1,.555.3c0.173,0.11.3,0.194,0.37,0.251s0.118,0.095.137,0.114a0.3,0.3,0,0,0,.256.066,0.257,0.257,0,0,0,.218-0.151l0.769-1.386a0.273,0.273,0,0,0-.048-0.36c-0.038-.038-0.085-0.082-0.142-0.133s-0.18-.142-0.37-0.275a4.625,4.625,0,0,0-.6-0.356,6.177,6.177,0,0,0-.826-0.318,5.3,5.3,0,0,0-1.048-.218v-1.669a0.291,0.291,0,0,0-.3-0.3H905.1a0.307,0.307,0,0,0-.3.3v1.707a4.347,4.347,0,0,0-2.419,1.271,3.244,3.244,0,0,0-.93,2.3,3.278,3.278,0,0,0,.081.74,3.812,3.812,0,0,0,.2.631,2.29,2.29,0,0,0,.337.55,5.515,5.515,0,0,0,.413.465,3.308,3.308,0,0,0,.507.4q0.314,0.21.536,0.337a6.551,6.551,0,0,0,.593.294c0.247,0.111.441,0.195,0.584,0.252l0.583,0.237c0.342,0.133.594,0.235,0.759,0.308s0.373,0.174.626,0.3a2.6,2.6,0,0,1,.555.355,1.8,1.8,0,0,1,.318.4,0.961,0.961,0,0,1,.142.5,1.329,1.329,0,0,1-.583,1.157,2.3,2.3,0,0,1-1.352.408,3.287,3.287,0,0,1-.7-0.076,4.948,4.948,0,0,1-2.3-1.186l-0.019-.019a0.236,0.236,0,0,0-.228-0.085,0.3,0.3,0,0,0-.218.114l-0.977,1.28a0.287,0.287,0,0,0,.019.389,2.1,2.1,0,0,0,.166.171,5.309,5.309,0,0,0,.441.356,5.864,5.864,0,0,0,1.665.878,6,6,0,0,0,1.209.294v1.66a0.307,0.307,0,0,0,.3.3h1.281a0.291,0.291,0,0,0,.3-0.3v-1.66a4.073,4.073,0,0,0,2.452-1.295,3.606,3.606,0,0,0,.944-2.5h0A3.142,3.142,0,0,0,909.959,247.557Z" transform="translate(-892 -232)"/>
</svg>
