<svg xmlns="http://www.w3.org/2000/svg" width="35.969" height="28" viewBox="0 0 35.969 28">
  <defs>
    <style>
      .cls-1 {
        fill: #3399FF;
        fill-rule: evenodd;
      }
    </style>
  </defs>
  <path id="icon-instant.svg" class="cls-1" d="M234.318,1168.94a2.469,2.469,0,0,0-1.78-.94H221.525a2.72,2.72,0,0,0-1.9.94,2.85,2.85,0,0,0-.782,2.04v6.16a0.554,0.554,0,0,1,.239-0.31l0.4-.41a1.539,1.539,0,0,1,1.376-.71v-1.31a0.37,0.37,0,0,1,.193-0.34,0.545,0.545,0,0,1,.472-0.06h11.013c0.187,0,.216-0.08.352,0.06s0.073,0.15.073,0.34v15.01a0.465,0.465,0,0,1-.073.43,0.363,0.363,0,0,1-.352.16H221.525a0.584,0.584,0,0,1-.472-0.16,0.523,0.523,0,0,1-.193-0.43v-0.87a1.534,1.534,0,0,1-1.357-.7l-0.45-.5a0.547,0.547,0,0,1-.21-0.29v5.77a3.114,3.114,0,0,0,.782,2.15,2.834,2.834,0,0,0,1.9,1.03h11.013a2.585,2.585,0,0,0,1.78-1.03,3.018,3.018,0,0,0,.662-2.15v-21.84A2.752,2.752,0,0,0,234.318,1168.94Zm-6.071,25.09a1.727,1.727,0,0,1-2.431,0,1.639,1.639,0,0,1-.5-1.21,1.617,1.617,0,0,1,.5-1.2,1.727,1.727,0,0,1,2.431,0,1.617,1.617,0,0,1,.5,1.2A1.639,1.639,0,0,1,228.247,1194.03Zm-2.289-11.91a0.708,0.708,0,0,1-.219.53l-3.851,3.82a0.742,0.742,0,0,1-.538.22,0.733,0.733,0,0,1-.532-0.22l-0.444-.44a0.714,0.714,0,0,1-.225-0.53,0.736,0.736,0,0,1,.225-0.54l1.733-1.71h-4.164a0.653,0.653,0,0,1-.5-0.22,0.8,0.8,0,0,1-.193-0.54v-0.75a0.793,0.793,0,0,1,.193-0.53,0.653,0.653,0,0,1,.5-0.22h4.164l-1.733-1.72a0.737,0.737,0,0,1,0-1.06l0.444-.44a0.72,0.72,0,0,1,.532-0.22,0.729,0.729,0,0,1,.538.22l3.851,3.82A0.693,0.693,0,0,1,225.958,1182.12Zm-9.615-5.06v10.44a1.462,1.462,0,0,1-.455,1.08,1.5,1.5,0,0,1-1.094.45H200.546a1.5,1.5,0,0,1-1.094-.45,1.462,1.462,0,0,1-.455-1.08v-10.44a1.469,1.469,0,0,1,.455-1.09,1.5,1.5,0,0,1,1.094-.45h14.248a1.5,1.5,0,0,1,1.094.45A1.469,1.469,0,0,1,216.343,1177.06Zm-1.239.35v-0.23c0-.03,0-0.07-0.005-0.13a0.293,0.293,0,0,0-.029-0.12,0.474,0.474,0,0,1-.053-0.09,0.221,0.221,0,0,0-.087-0.07,0.535,0.535,0,0,0-.136-0.02H200.546a0.3,0.3,0,0,0-.219.09,0.291,0.291,0,0,0-.091.22,3.343,3.343,0,0,0,1.423,2.72c1.245,0.97,2.539,1.99,3.881,3.04,0.039,0.04.152,0.13,0.339,0.29s0.336,0.27.445,0.36,0.253,0.18.431,0.3a2.154,2.154,0,0,0,.488.26,1.121,1.121,0,0,0,.417.09h0.019a1.121,1.121,0,0,0,.417-0.09,2.138,2.138,0,0,0,.489-0.26q0.266-.18.431-0.3t0.445-.36c0.187-.16.3-0.25,0.339-0.29,1.342-1.05,2.636-2.07,3.881-3.04a4.322,4.322,0,0,0,.973-1.11A2.36,2.36,0,0,0,215.1,1177.41Zm0,10.09v-7.37a5.514,5.514,0,0,1-.668.63q-2.594,1.98-4.124,3.24c-0.329.28-.6,0.49-0.8,0.65a4.324,4.324,0,0,1-.837.46,2.408,2.408,0,0,1-.993.24H207.66a2.407,2.407,0,0,1-.992-0.24,4.324,4.324,0,0,1-.837-0.46c-0.207-.16-0.474-0.37-0.8-0.65q-1.53-1.26-4.124-3.24a5.506,5.506,0,0,1-.667-0.63v7.37a0.285,0.285,0,0,0,.091.21,0.279,0.279,0,0,0,.219.1h14.248a0.277,0.277,0,0,0,.218-0.1A0.286,0.286,0,0,0,215.1,1187.5Z" transform="translate(-199 -1168)"/>
</svg>
