<svg xmlns="http://www.w3.org/2000/svg" viewBox="0 0 29.44 31.969">
  <defs>
    <style>
      .cls-1 {
        fill: #636363;
        fill-rule: evenodd;
      }
    </style>
  </defs>
  <path id="shopping-cart.svg" class="cls-1" d="M1102.48,74.863h-17.71a1.186,1.186,0,0,1-1.17-1.008l-3.63-22.941h-2.04a1.2,1.2,0,0,1,0-2.4h3.04a1.175,1.175,0,0,1,1.16,1.007l3.64,22.942h15.71l2.15-13.57h-20.34a1.2,1.2,0,0,1,0-2.4h21.72a1.174,1.174,0,0,1,.9.422,1.2,1.2,0,0,1,.26.966l-2.53,15.966A1.176,1.176,0,0,1,1102.48,74.863Zm-14.59,5.643a2.029,2.029,0,1,1,1.99-2.029A2.01,2.01,0,0,1,1087.89,80.506Zm12.03,0a2.029,2.029,0,1,1,1.99-2.029A2.019,2.019,0,0,1,1099.92,80.506Z" transform="translate(-1076.75 -48.531)"/>
</svg>
